<svg width="218" height="32" viewBox="0 0 218 32" fill="none" xmlns="http://www.w3.org/2000/svg">
<path d="M171.749 22.6667C172.137 22.6667 172.457 22.8042 172.732 23.0792C172.999 23.3466 173.136 23.6827 173.136 24.0799C173.136 24.4618 172.999 24.7979 172.732 25.0729C172.457 25.3479 172.13 25.4854 171.749 25.4854C171.36 25.4854 171.032 25.3479 170.766 25.0729C170.499 24.7979 170.362 24.4618 170.362 24.0799C170.362 23.6903 170.499 23.3542 170.766 23.0792C171.032 22.8042 171.36 22.6667 171.749 22.6667Z" fill="#282828"/>
<path d="M185.52 15.3794L184.316 16.1662C183.279 14.7224 181.862 13.9967 180.063 13.9967C178.63 13.9967 177.434 14.4856 176.489 15.4481C175.536 16.4106 175.064 17.587 175.064 18.9696C175.064 19.8709 175.277 20.7188 175.719 21.5133C176.154 22.3077 176.756 22.9188 177.518 23.3619C178.28 23.7973 179.133 24.0188 180.078 24.0188C181.808 24.0188 183.226 23.2931 184.323 21.8494L185.527 22.6744C184.963 23.5605 184.209 24.2556 183.256 24.7445C182.304 25.2333 181.229 25.4854 180.01 25.4854C178.143 25.4854 176.603 24.8667 175.369 23.6216C174.142 22.3765 173.524 20.8716 173.524 19.0918C173.524 17.9001 173.814 16.7849 174.386 15.7613C174.957 14.7377 175.75 13.9356 176.756 13.3627C177.762 12.7898 178.882 12.4995 180.124 12.4995C180.909 12.4995 181.656 12.6218 182.388 12.8738C183.111 13.1259 183.729 13.4468 184.232 13.8516C184.742 14.2488 185.169 14.7606 185.52 15.3794Z" fill="#282828"/>
<path d="M193.118 12.4919C195.015 12.4919 196.593 13.1794 197.835 14.562C198.971 15.8148 199.535 17.3043 199.535 19.023C199.535 20.7494 198.932 22.2542 197.736 23.5452C196.54 24.8361 194.992 25.4778 193.118 25.4778C191.228 25.4778 189.681 24.8361 188.484 23.5452C187.288 22.2542 186.686 20.7418 186.686 19.023C186.686 17.312 187.257 15.83 188.385 14.5696C189.635 13.187 191.213 12.4919 193.118 12.4919ZM193.11 14.0502C191.792 14.0502 190.656 14.5391 189.711 15.5168C188.766 16.4946 188.286 17.671 188.286 19.0612C188.286 19.955 188.499 20.7876 188.934 21.5591C189.368 22.3306 189.947 22.9264 190.687 23.3466C191.418 23.7667 192.226 23.9806 193.11 23.9806C193.987 23.9806 194.794 23.7667 195.526 23.3466C196.258 22.9264 196.844 22.3306 197.279 21.5591C197.713 20.7876 197.927 19.955 197.927 19.0612C197.927 17.6786 197.446 16.4946 196.501 15.5168C195.556 14.5391 194.421 14.0502 193.11 14.0502Z" fill="#282828"/>
<path d="M202.286 12.8127V14.9439C202.796 14.1571 203.33 13.5842 203.871 13.2176C204.618 12.7287 205.41 12.4919 206.233 12.4919C206.79 12.4919 207.315 12.6065 207.818 12.8433C208.321 13.0801 208.725 13.3933 209.045 13.7752C209.366 14.1648 209.64 14.7224 209.868 15.4481C210.364 14.478 210.974 13.7447 211.713 13.2405C212.452 12.7363 213.245 12.4843 214.098 12.4843C214.891 12.4843 215.592 12.6981 216.201 13.1336C216.811 13.569 217.261 14.1648 217.558 14.9363C217.855 15.7078 218 16.8689 218 18.4119V25.1569H216.491V18.4119C216.491 17.0828 216.407 16.1738 216.224 15.6849C216.049 15.1884 215.752 14.7912 215.325 14.4856C214.898 14.1801 214.395 14.0349 213.801 14.0349C213.084 14.0349 212.429 14.2641 211.835 14.7148C211.24 15.1655 210.806 15.7766 210.532 16.5328C210.257 17.289 210.12 18.5494 210.12 20.3216V25.1569H208.642V18.8321C208.642 17.3425 208.558 16.3265 208.382 15.7918C208.215 15.2571 207.91 14.8294 207.476 14.5085C207.049 14.1877 206.538 14.0273 205.944 14.0273C205.265 14.0273 204.625 14.2488 204.023 14.6919C203.429 15.1349 202.987 15.7307 202.705 16.4793C202.423 17.2279 202.278 18.3737 202.278 19.9168V25.1493H200.8V12.8127H202.286Z" fill="#282828"/>
<path d="M46.4535 14.3176L41.7819 7.42741H38.3297V25.2333H42.6736V16.38L46.4383 22.0327L48.1835 19.4279L50.2106 16.4335V25.2333H54.5241V7.42741H51.1251L46.4535 14.3176Z" fill="#282828"/>
<path d="M64.576 18.9467C64.576 22.3535 59.9806 23.0716 59.9806 19.023V11.4683H55.9415V19.0536C55.9187 22.4605 56.978 25.3861 60.8875 25.4167C62.3583 25.4396 63.8063 25.0882 64.7742 23.8355V25.2333H68.8056V11.4683H64.5684V18.9467H64.576Z" fill="#282828"/>
<path d="M74.5061 7.42741H70.4441V25.2333H74.5061V7.42741Z" fill="#282828"/>
<path d="M81.6087 20.4744V15.0585H84.4742V11.6211H81.6087V8.64961L77.623 9.00099V11.6211H75.8169V15.0585H77.623V20.4744C77.623 24.8285 80.3665 26.0201 84.7257 25.2563L84.5961 21.9487C83.3615 22.2313 81.6087 22.2084 81.6087 20.4744Z" fill="#282828"/>
<path d="M85.9222 8.74891C85.9222 11.7509 90.7157 11.7509 90.7157 8.74891C90.7233 5.61702 85.9222 5.61702 85.9222 8.74891Z" fill="#282828"/>
<path d="M90.3652 11.4683H86.3032V25.2333H90.3652V11.4683Z" fill="#282828"/>
<path d="M91.333 11.4989H96.1265V25.2333H100.47V11.4989H105.241V7.42741H91.333V11.4989Z" fill="#282828"/>
<path d="M109.806 12.3849L109.654 11.4683H106.049V25.2333H110.035V17.6022C110.035 15.1578 112.595 14.6002 114.295 15.1578L114.348 11.3919C112.603 10.9641 111.079 11.1627 109.806 12.3849Z" fill="#282828"/>
<path d="M125.086 12.8968C124.194 11.7509 122.876 11.2468 121.535 11.2468C117.092 11.2468 114.935 14.3481 114.882 18.114C114.859 21.9028 117.115 25.4167 121.481 25.4167C122.8 25.4167 124.149 25.0347 125.086 23.866V25.241H129.072V11.4683H125.086V12.8968ZM121.969 21.5667C119.911 21.5667 118.875 19.8633 118.898 18.2057C118.921 16.5252 119.934 14.921 121.969 14.921C123.699 14.921 125.094 16.4259 125.094 18.2515C125.086 20.0925 123.691 21.5667 121.969 21.5667Z" fill="#282828"/>
<path d="M140.297 17.3196H144.253C143.285 8.94752 130.421 9.30655 130.421 18.3356C130.421 27.3951 143.292 27.7236 144.253 19.3821H140.297C139.436 22.6896 134.33 22.3306 134.33 18.3356C134.33 14.3405 139.429 14.012 140.297 17.3196Z" fill="#282828"/>
<path d="M157.81 11.6746V11.4683H153.443L149.663 16.8918V7.42741H145.678V25.2333H149.663V19.8633L153.596 25.2333H158.267V25.0576L153.161 18.3126L157.81 11.6746Z" fill="#282828"/>
<path d="M163.8 16.4106C163.244 16.38 162.177 16.3571 162.177 15.6467C162.177 14.9057 162.985 14.7071 163.572 14.7071C164.387 14.7071 165.423 14.7835 165.446 15.8529H169.226C169.203 12.6447 166.688 11.1475 163.77 11.1475C160.752 11.1475 158.214 12.5683 158.214 15.9064C158.214 18.9314 160.851 19.9244 163.419 20.1536C164.052 20.1994 165.553 20.0772 165.553 21.0702C165.553 21.5515 164.867 21.9334 163.831 21.9105C162.947 21.9105 162.002 21.5285 161.979 20.6119H158.016C158.069 24.1257 160.5 25.6 163.754 25.6C166.749 25.6 169.516 24.4313 169.516 20.9709C169.508 17.7015 166.643 16.4793 163.8 16.4106Z" fill="#282828"/>
<path d="M15.9671 0C10.5648 0 5.78707 2.69091 2.89717 6.80727H14.2462C14.2462 6.80727 15.0594 7.05455 15.0594 7.96364C15.0594 8.87273 14.2172 9.12 14.2172 9.12H1.53935C1.31425 9.59273 1.11095 10.0873 0.92942 10.5818H20.8538C20.8538 10.5818 21.667 10.8364 21.667 11.7455C21.667 12.6545 20.8247 12.9018 20.8247 12.9018H5.11178H0.290443C0.19605 13.4036 0.11618 13.9127 0.0653524 14.4291H28.7974C28.7974 14.4291 29.6106 14.6764 29.6106 15.5855C29.6106 16.4945 28.7683 16.7418 28.7683 16.7418H13.0554H0C0.0217832 17.2436 0.0726123 17.7382 0.137962 18.2255H26.5537C26.5537 18.2255 27.3669 18.4727 27.3669 19.3818C27.3669 20.2909 26.5246 20.5382 26.5246 20.5382H10.819H0.646239C0.798721 21.0545 0.972984 21.5564 1.17629 22.0436H18.2688C18.2688 22.0436 19.0821 22.2909 19.0821 23.2C19.0821 24.1091 18.2398 24.3564 18.2398 24.3564H2.53411H2.35984C5.16261 28.9455 10.2091 32 15.9671 32C24.7893 32 31.9414 24.8364 31.9414 16C31.9414 7.16364 24.7893 0 15.9671 0Z" fill="#282828"/>
</svg>
